<?xml version="1.0" encoding="utf-8"?>
<!-- Generator: Adobe Illustrator 16.0.0, SVG Export Plug-In . SVG Version: 6.00 Build 0)  -->
<!DOCTYPE svg PUBLIC "-//W3C//DTD SVG 1.1//EN" "http://www.w3.org/Graphics/SVG/1.1/DTD/svg11.dtd">
<svg version="1.1" id="Layer_1" xmlns="http://www.w3.org/2000/svg" xmlns:xlink="http://www.w3.org/1999/xlink" x="0px" y="0px"
	 width="54.131px" height="200px" viewBox="0 0 54.131 200" enable-background="new 0 0 54.131 200" xml:space="preserve">
<g>
	<path fill="#f40000" d="M47.569,187.311c-3.629,0-6.565,2.938-6.565,6.562c0,3.624,2.937,6.562,6.565,6.562
		c3.619,0,6.562-2.938,6.562-6.562S51.188,187.311,47.569,187.311z"/>
	<path fill="#f40000" d="M13.941,109.566C6.248,109.566,0,115.811,0,123.508c0,7.698,6.248,13.941,13.941,13.941
		c7.699,0,13.947-6.243,13.947-13.941C27.888,115.811,21.64,109.566,13.941,109.566z"/>
	<path fill="#f40000" d="M31.328,0.002c-11.589,0-20.995,9.4-20.995,20.995c0,11.594,9.406,20.994,20.995,20.994
		c11.594,0,21-9.4,21-20.994C52.327,9.402,42.921,0.002,31.328,0.002z"/>
</g>
</svg>
