<?xml version="1.0" encoding="UTF-8"?>
<svg width="19px" height="20px" viewBox="0 0 19 20" version="1.1" xmlns="http://www.w3.org/2000/svg" xmlns:xlink="http://www.w3.org/1999/xlink">
    <!-- Generator: Sketch 51.3 (57544) - http://www.bohemiancoding.com/sketch -->
    <title>circle-arrow_cta</title>
    <desc>Created with Sketch.</desc>
    <defs></defs>
    <g id="Brands" stroke="none" stroke-width="1" fill="none" fill-rule="evenodd">
        <g id="Brand_Landing-australia" transform="translate(-505.000000, -1615.000000)" fill="#B30006">
            <g id="Group-9" transform="translate(201.000000, 1065.000000)">
                <g id="Group-14" transform="translate(68.000000, 517.000000)">
                    <g id="circle-arrow_cta" transform="translate(236.000000, 33.000000)">
                        <path d="M9.5,18.825 C14.7048193,18.825 18.95,14.8981497 18.95,10.05 C18.95,5.20185026 14.7048193,1.275 9.5,1.275 C4.29518072,1.275 0.05,5.21695353 0.05,10.05 C0.05,14.8830465 4.29518072,18.825 9.5,18.825 L9.5,18.825 Z M9.5,2.51346816 C13.9728916,2.51346816 17.6162651,5.89660069 17.6162651,10.05 C17.6162651,14.2033993 13.9728916,17.5865318 9.5,17.5865318 C5.02710843,17.5865318 1.38373494,14.2033993 1.38373494,10.05 C1.38373494,5.89660069 5.02710843,2.51346816 9.5,2.51346816 L9.5,2.51346816 Z" id="expand" transform="translate(9.500000, 10.050000) rotate(-270.000000) translate(-9.500000, -10.050000) "></path>
                        <path d="M13.4175015,9.32164541 L10.2097512,12.4556888 C10.1158659,12.5465306 9.95939023,12.5465306 9.86550486,12.4556888 L6.65775459,9.32164541 C6.56386922,9.23080357 6.56386922,9.07940051 6.65775459,8.98855867 L7.00200096,8.65547194 C7.09588633,8.5646301 7.25236196,8.5646301 7.34624733,8.65547194 L9.86550486,11.1233418 C9.95939023,11.2141837 10.1158659,11.2141837 10.2097512,11.1233418 L12.7290087,8.67061224 C12.8228941,8.57977041 12.9793697,8.57977041 13.0732551,8.67061224 L13.4175015,9.00369898 C13.4957393,9.09454082 13.4957393,9.23080357 13.4175015,9.32164541 L13.4175015,9.32164541 Z" id="Mask" stroke="#B30006" stroke-width="0.5" transform="translate(10.031760, 10.555580) rotate(-90.000000) translate(-10.031760, -10.555580) "></path>
                    </g>
                </g>
            </g>
        </g>
    </g>
</svg>