<?xml version="1.0" encoding="utf-8"?>
<!-- Generator: Adobe Illustrator 16.0.0, SVG Export Plug-In . SVG Version: 6.00 Build 0)  -->
<!DOCTYPE svg PUBLIC "-//W3C//DTD SVG 1.1//EN" "http://www.w3.org/Graphics/SVG/1.1/DTD/svg11.dtd">
<svg version="1.1" id="Layer_1" xmlns="http://www.w3.org/2000/svg" xmlns:xlink="http://www.w3.org/1999/xlink" x="0px" y="0px"
	 width="19px" height="20px" viewBox="0 0 19 20" enable-background="new 0 0 19 20" xml:space="preserve">
<title>circle-arrow_cta</title>
<desc>Created with Sketch.</desc>
<g id="Brands">
	<g id="Brand_Landing-australia" transform="translate(-505.000000, -1615.000000)">
		<g id="Group-9" transform="translate(201.000000, 1065.000000)">
			<g id="Group-14" transform="translate(68.000000, 517.000000)">
				<g id="circle-arrow_cta" transform="translate(236.000000, 33.000000)">
					<path id="expand" fill="#FFFFFF" d="M0.725,10.05c0,5.205,3.927,9.45,8.775,9.45c4.848,0,8.775-4.245,8.775-9.45
						c0-5.205-3.942-9.45-8.775-9.45S0.725,4.845,0.725,10.05L0.725,10.05z M17.037,10.05c0,4.474-3.384,8.116-7.537,8.116
						s-7.537-3.643-7.537-8.116c0-4.473,3.383-8.116,7.537-8.116S17.037,5.577,17.037,10.05L17.037,10.05z"/>
					<path id="Mask" fill="#FFFFFF" stroke="#FFFFFF" stroke-width="0.5" d="M8.798,7.17l3.134,3.208
						c0.092,0.094,0.092,0.25,0,0.344L8.798,13.93c-0.091,0.094-0.242,0.094-0.333,0l-0.333-0.344c-0.091-0.095-0.091-0.251,0-0.345
						l2.468-2.52c0.091-0.094,0.091-0.25,0-0.344L8.147,7.858c-0.091-0.094-0.091-0.25,0-0.344L8.48,7.17
						C8.571,7.092,8.707,7.092,8.798,7.17L8.798,7.17z"/>
				</g>
			</g>
		</g>
	</g>
</g>
</svg>
