<?xml version="1.0" encoding="utf-8"?>
<!-- Generator: Adobe Illustrator 23.0.1, SVG Export Plug-In . SVG Version: 6.00 Build 0)  -->
<svg version="1.1" id="Layer_1" xmlns="http://www.w3.org/2000/svg" xmlns:xlink="http://www.w3.org/1999/xlink" x="0px" y="0px"
	 viewBox="0 0 57 36" style="enable-background:new 0 0 57 36;" xml:space="preserve">
<style type="text/css">
	.st0{fill-rule:evenodd;clip-rule:evenodd;fill:#FF0210;}
	.st1{fill-rule:evenodd;clip-rule:evenodd;fill:#FFFFFF;}
	.st2{filter:url(#Adobe_OpacityMaskFilter);}
	.st3{mask:url(#mask-2_1_);fill-rule:evenodd;clip-rule:evenodd;}
	.st4{fill-rule:evenodd;clip-rule:evenodd;fill:#DFDEDE;}
</style>
<title>Group 8</title>
<desc>Created with Sketch.</desc>
<g id="Page-1">
	<g id="ContactUs-Revised-chat" transform="translate(-297.000000, -693.000000)">
		<g id="Group-8" transform="translate(297.000000, 693.000000)">
			<polygon id="Fill-1" class="st0" points="2,36 56,36 56,1 2,1 			"/>
			<g id="Group-7">
				<path id="Fill-2" class="st1" d="M1.6,2c0.1,0,25.9,20.9,25.9,20.9L56.2,2l-0.8,32.8H0.8L1.6,2z"/>
				<g id="Group-6">
					<g id="Clip-5">
					</g>
					<defs>
						<filter id="Adobe_OpacityMaskFilter" filterUnits="userSpaceOnUse" x="0" y="0.8" width="57" height="35.2">
							<feColorMatrix  type="matrix" values="1 0 0 0 0  0 1 0 0 0  0 0 1 0 0  0 0 0 1 0"/>
						</filter>
					</defs>
					<mask maskUnits="userSpaceOnUse" x="0" y="0.8" width="57" height="35.2" id="mask-2_1_">
						<g class="st2">
							<polygon id="path-1_1_" class="st1" points="0,0.8 57,0.8 57,36 0,36 							"/>
						</g>
					</mask>
					<path id="Fill-4" class="st3" d="M22.6,19.2l5.4,4.3c0.3,0.2,0.8,0.2,1,0l5.4-4.3l19.9,15.2H2.7L22.6,19.2z M55.4,3.2v30.1
						L35.7,18.2L55.4,3.2z M1.6,3.2l19.7,15L1.6,33.3V3.2z M3,2.3H54L28.5,21.9L3,2.3z M0,1.5v33.7C0,35.6,0.4,36,0.8,36h55.4
						c0.4,0,0.8-0.4,0.8-0.8V1.5c0-0.4-0.4-0.8-0.8-0.8c-15.8,0-41.5,0-55.6,0C0.3,0.8,0,1.2,0,1.5z"/>
				</g>
				<polygon id="Triangle" class="st4" points="28.5,21.9 1.6,2 55.4,2 				"/>
			</g>
		</g>
	</g>
</g>
</svg>
