<?xml version="1.0" encoding="UTF-8"?>
<svg width="41px" height="69px" viewBox="0 0 41 69" version="1.1" xmlns="http://www.w3.org/2000/svg" xmlns:xlink="http://www.w3.org/1999/xlink">
    <!-- Generator: Sketch 60 (88103) - https://sketch.com -->
    <title>Group 21</title>
    <desc>Created with Sketch.</desc>
    <g id="Page-1" stroke="none" stroke-width="1" fill="none" fill-rule="evenodd">
        <g id="ContactUs-Revised-chat" transform="translate(-702.000000, -682.000000)">
            <g id="Group-21" transform="translate(703.000000, 683.000000)">
                <path d="M35.6379034,67 L3.36209663,67 C1.50775539,67 0,65.19636 0,62.98 L0,4.02 C0,1.803104 1.50775539,0 3.36209663,0 L35.6379034,0 C37.4922446,0 39,1.803104 39,4.02 L39,62.98 C39,65.19636 37.4922446,67 35.6379034,67" id="Fill-5" fill="#DFDEDE"></path>
                <path d="M35.6379034,67 L3.36209663,67 C1.50775539,67 0,65.19636 0,62.98 L0,4.02 C0,1.803104 1.50775539,0 3.36209663,0 L35.6379034,0 C37.4922446,0 39,1.803104 39,4.02 L39,62.98 C39,65.19636 37.4922446,67 35.6379034,67 Z" id="Stroke-7" stroke="#160F10" stroke-width="0.5"></path>
                <path d="M27.3156374,62 L15.6843626,62 C15.3069228,62 15,61.6552319 15,61.2307361 L15,57.7696949 C15,57.3439062 15.3069228,57 15.6843626,57 L27.3156374,57 C27.6930772,57 28,57.3439062 28,57.7696949 L28,61.2307361 C28,61.6552319 27.6930772,62 27.3156374,62" id="Fill-9"></path>
                <path d="M26.3156374,62 L14.6843626,62 C14.3069228,62 14,61.6552319 14,61.2307361 L14,57.7696949 C14,57.3439062 14.3069228,57 14.6843626,57 L26.3156374,57 C26.6930772,57 27,57.3439062 27,57.7696949 L27,61.2307361 C27,61.6552319 26.6930772,62 26.3156374,62 Z" id="Stroke-11" stroke="#160F10" stroke-width="0.5" fill="#FFFCFC"></path>
                <path d="M24.1001611,7 L16.9003758,7 C16.4032094,7 16,6.328 16,5.5 C16,4.67125 16.4032094,4 16.9003758,4 L24.1001611,4 C24.5967906,4 25,4.67125 25,5.5 C25,6.328 24.5967906,7 24.1001611,7" id="Fill-13"></path>
                <path d="M23.1001611,7 L15.9003758,7 C15.4032094,7 15,6.328 15,5.5 C15,4.67125 15.4032094,4 15.9003758,4 L23.1001611,4 C23.5967906,4 24,4.67125 24,5.5 C24,6.328 23.5967906,7 23.1001611,7 Z" id="Stroke-15" stroke="#160F10" stroke-width="0.5" fill="#FFFFFF"></path>
                <polygon id="Fill-17" fill="#FFFFFF" points="37 53 3 53 3.02222803 9.0217352 37 9"></polygon>
                <polygon id="Stroke-19" stroke="#160F10" stroke-width="0.5" points="37 53 3 53 3.02222803 9.0217352 37 9"></polygon>
            </g>
        </g>
    </g>
</svg>